<svg width="24" height="24" viewBox="0 0 24 24" fill="none" xmlns="http://www.w3.org/2000/svg">
<path fill-rule="evenodd" clip-rule="evenodd" d="M9 21H5C3.895 21 3 20.105 3 19V15C3 13.895 3.895 13 5 13H9C10.105 13 11 13.895 11 15V19C11 20.105 10.105 21 9 21Z" stroke="#938FE1" stroke-width="1.76306" stroke-linecap="round" stroke-linejoin="round"/>
<path d="M11 17H14C15.105 17 16 16.105 16 15V10C16 8.895 15.105 8 14 8H9C7.895 8 7 8.895 7 10V13" stroke="#938FE1" stroke-width="1.76306" stroke-linecap="round" stroke-linejoin="round"/>
<path d="M16 14H19C20.105 14 21 13.105 21 12V5C21 3.895 20.105 3 19 3H12C10.895 3 10 3.895 10 5V8" stroke="#938FE1" stroke-width="1.76306" stroke-linecap="round" stroke-linejoin="round"/>
</svg>
